#!OML:ASF E:\Steps\Project 1\Capture day 1\Session 2\Subject.ASF
:FULLY-SPECIFIED
:DEGREES
92
root -1.69829 16.2009 36.1377 -151.47 -1.55478 176.531
lowerback -31.4115 -1.3669 -6.33479
upperback -1.67992 -0.280213 -0.576602
thorax 14.5084 -0.853959 2.599
lowerneck -3.72678 2.6713 -2.08586
upperneck 15.8199 0.0630882 15.3123
head 5.30374 0.302117 5.14282
rclavicle -7.25564e-015 -8.05078e-015
rhumerus -38.7206 -22.8638 -75.7797
rradius 32.3223
rwrist 1.22652
rhand -1.38368 -56.2672
rfingers 7.12502
rthumb 24.2644 -84.7518
lclavicle -7.25564e-015 -8.05078e-015
lhumerus -29.7131 4.45424 81.0726
lradius 21.9442
lwrist -4.90815
lhand -19.6637 -12.3207
lfingers 7.12502
lthumb 6.6645 17.5544
rfemur -22.575 4.73372 19.1481
rtibia 3.74419
rfoot -17.849 -5.88503
rtoes -30.9029
lfemur -24.7963 -8.31458 -20.689
ltibia 9.68961
lfoot -9.31818 3.84744
ltoes -45.5248
93
root -1.6999 16.2008 36.1381 -151.484 -1.60982 176.547
lowerback -31.3052 -1.45316 -6.31221
upperback -1.7988 -0.456584 -0.35633
thorax 14.3421 -0.933992 2.75676
lowerneck -3.60878 2.81239 -2.67708
upperneck 15.9022 0.234311 15.7046
head 5.27897 0.367107 5.38182
rclavicle 1.04238e-014 -2.62893e-014
rhumerus -38.6966 -22.324 -75.5681
rradius 32.1312
rwrist 1.19784
rhand -1.32593 -55.5465
rfingers 7.12502
rthumb 24.3198 -84.0237
lclavicle 1.04238e-014 -2.62893e-014
lhumerus -30.0708 5.20743 81.1301
lradius 22.2131
lwrist -5.29003
lhand -19.476 -12.2665
lfingers 7.12502
lthumb 6.84567 17.6028
rfemur -22.5495 5.01867 19.073
rtibia 3.70261
rfoot -17.8676 -6.13394
rtoes -30.8039
lfemur -24.7763 -8.4294 -20.637
ltibia 9.64482
lfoot -9.42604 3.90417
ltoes -45.3939
94
root -1.69985 16.2046 36.1401 -151.583 -1.72478 176.562
lowerback -31.1374 -1.34648 -6.1338
upperback -1.80978 -0.3733 -0.452114
thorax 14.2489 -0.878523 2.59343
lowerneck -3.48051 2.83494 -2.79465
upperneck 15.8782 0.210814 15.9951
head 5.24694 0.349423 5.49289
rclavicle -6.21202e-017 1.4561e-014
rhumerus -38.7546 -22.5553 -75.5527
rradius 31.9706
rwrist 1.30608
rhand -1.23177 -55.2568
rfingers 7.12502
rthumb 24.41 -83.7219
lclavicle -6.21202e-017 1.4561e-014
lhumerus -30.0958 5.08171 81.0027
lradius 22.3889
lwrist -5.23838
lhand -19.2393 -12.215
lfingers 7.12502
lthumb 7.07418 17.6468
rfemur -22.4267 5.04158 19.1457
rtibia 3.68257
rfoot -17.7945 -6.38533
rtoes -31.661
lfemur -24.5237 -8.9914 -20.4755
ltibia 9.31071
lfoot -9.4295 4.36691
ltoes -44.8357
95
root -1.69793 16.2037 36.1415 -151.567 -1.83895 176.648
lowerback -31.0744 -1.09482 -6.15757
upperback -1.79732 -0.0195797 -0.555172
thorax 14.2038 -0.716725 2.63806
lowerneck -3.73263 2.76375 -2.6732
upperneck 15.8956 0.0239803 16.3068
head 5.31686 0.288087 5.56897
rclavicle -1.19271e-014 1.44119e-014
rhumerus -38.8979 -23.2553 -75.3523
rradius 31.8495
rwrist 1.32081
rhand -1.27718 -55.1166
rfingers 7.12502
rthumb 24.3665 -83.5874
lclavicle -1.19271e-014 1.44119e-014
lhumerus -29.8119 4.2873 81.1582
lradius 22.389
lwrist -5.05735
lhand -19.159 -12.3375
lfingers 7.12502
lthumb 7.15165 17.5217
rfemur -22.4751 4.73537 19.3871
rtibia 3.69684
rfoot -17.6717 -6.33586
rtoes -32.5632
lfemur -24.629 -8.75459 -20.3802
ltibia 9.43101
lfoot -9.45891 4.04443
ltoes -44.1103
96
root -1.69484 16.2005 36.1425 -151.555 -1.95115 176.683
lowerback -31.1692 -1.06474 -5.98895
upperback -1.75084 -0.0201281 -0.591376
thorax 14.3023 -0.707013 2.50692
lowerneck -3.6405 2.81615 -2.85673
upperneck 15.853 0.055573 16.6076
head 5.27904 0.296867 5.69828
rclavicle 8.74653e-015 -1.87852e-014
rhumerus -38.7629 -23.3164 -75.4477
rradius 31.6556
rwrist 1.43433
rhand -1.35648 -54.9183
rfingers 7.12502
rthumb 24.2905 -83.3994
lclavicle 8.74653e-015 -1.87852e-014
lhumerus -29.7359 4.14599 81.1043
lradius 22.4964
lwrist -4.64599
lhand -19.0051 -12.4537
lfingers 7.12502
lthumb 7.30024 17.4004
rfemur -22.5144 4.51942 19.5222
rtibia 3.72525
rfoot -17.6613 -6.29889
rtoes -32.8234
lfemur -24.6643 -8.7607 -20.2947
ltibia 9.4242
lfoot -9.3292 3.94512
ltoes -43.9215
97
root -1.69436 16.2006 36.1436 -151.602 -2.02601 176.651
lowerback -31.0795 -1.12206 -6.10681
upperback -1.75857 -0.0739842 -0.453876
thorax 14.258 -0.737816 2.70036
lowerneck -3.72434 2.92143 -3.17566
upperneck 15.9079 0.156367 16.969
head 5.29212 0.349685 5.88081
rclavicle -6.74625e-015 7.35503e-015
rhumerus -38.7759 -23.0938 -75.3197
rradius 31.6456
rwrist 1.47612
rhand -1.25458 -54.906
rfingers 7.12502
rthumb 24.3882 -83.3739
lclavicle -6.74625e-015 7.35503e-015
lhumerus -29.733 4.1746 81.2798
lradius 22.5634
lwrist -4.2777
lhand -18.852 -12.4813
lfingers 7.12502
lthumb 7.44798 17.3676
rfemur -22.4417 4.69169 19.4602
rtibia 3.69334
rfoot -17.7898 -6.63475
rtoes -33.6178
lfemur -24.6253 -8.60545 -20.3659
ltibia 9.41531
lfoot -9.29149 3.72248
ltoes -44.1367
98
root -1.69551 16.2005 36.1445 -151.61 -2.06787 176.597
lowerback -31.0517 -0.987504 -6.07271
upperback -1.70818 0.1189 -0.595823
thorax 14.2877 -0.644693 2.606
lowerneck -3.91023 2.92252 -3.15213
upperneck 15.8925 0.0909465 17.2649
head 5.32667 0.3378 5.97368
rclavicle 2.74571e-015 1.11319e-014
rhumerus -38.8469 -23.3633 -75.3876
rradius 31.5998
rwrist 1.55922
rhand -1.76632 -54.4521
rfingers 7.12502
rthumb 23.8975 -82.9852
lclavicle 2.74571e-015 1.11319e-014
lhumerus -29.4388 3.7698 81.2367
lradius 22.5115
lwrist -4.26663
lhand -19.6254 -12.6264
lfingers 7.12502
lthumb 6.70149 17.2476
rfemur -22.4479 5.33432 19.2558
rtibia 3.7521
rfoot -17.9273 -7.30219
rtoes -32.1141
lfemur -24.6447 -8.43597 -20.4782
ltibia 9.48242
lfoot -9.38714 3.54159
ltoes -44.435
99
root -1.69776 16.1985 36.1462 -151.556 -2.16328 176.585
lowerback -31.124 -0.969897 -5.99655
upperback -1.72235 0.107536 -0.527732
thorax 14.3057 -0.647944 2.63374
lowerneck -3.83086 3.00786 -3.51791
upperneck 15.8939 0.172036 17.645
head 5.29438 0.368058 6.16645
rclavicle 3.15571e-015 -2.13694e-015
rhumerus -38.8697 -23.0605 -75.3661
rradius 31.79
rwrist 1.62121
rhand -3.13385 -55.0033
rfingers 7.12502
rthumb 22.5855 -83.702
lclavicle 3.15571e-015 -2.13694e-015
lhumerus -29.3408 4.10295 81.2661
lradius 22.4734
lwrist -4.66319
lhand -21.2635 -12.9342
lfingers 7.12502
lthumb 5.11991 16.984
rfemur -22.6837 5.9958 19.112
rtibia 4.16503
rfoot -18.1932 -8.12672
rtoes -32.55
lfemur -24.7069 -8.53529 -20.4565
ltibia 9.47395
lfoot -9.49266 3.66762
ltoes -45.1893
100
root -1.69576 16.2025 36.1422 -151.842 -2.3059 176.649
lowerback -30.8164 -0.770816 -5.79507
upperback -1.67052 0.323129 -0.683639
thorax 14.2169 -0.52458 2.447
lowerneck -3.86455 2.97955 -3.53
upperneck 15.8565 0.0693342 17.9398
head 5.29881 0.325723 6.26091
rclavicle -8.26199e-015 -6.95746e-015
rhumerus -39.1512 -23.4896 -75.361
rradius 31.8525
rwrist 1.39813
rhand -1.82888 -54.6595
rfingers 7.12502
rthumb 23.8375 -83.2005
lclavicle -8.26199e-015 -6.95746e-015
lhumerus -29.157 3.48199 81.3113
lradius 22.5974
lwrist -4.00087
lhand -21.7886 -13.1113
lfingers 7.12502
lthumb 4.61291 16.8185
rfemur -22.4364 6.61715 19.1627
rtibia 4.45877
rfoot -18.3927 -8.85321
rtoes -31.7501
lfemur -24.2482 -8.54296 -20.392
ltibia 9.25272
lfoot -9.70072 3.66649
ltoes -45.1759
101
root -1.69474 16.2011 36.1458 -151.895 -2.51771 176.611
lowerback -30.7128 -0.91503 -5.73462
upperback -1.74738 0.0798537 -0.555489
thorax 14.1025 -0.630032 2.45735
lowerneck -3.63823 3.14492 -3.99333
upperneck 15.8849 0.272679 18.2867
head 5.23073 0.400182 6.46456
rclavicle -1.12375e-014 5.54112e-015
rhumerus -39.2488 -22.9792 -75.3323
rradius 31.8856
rwrist 1.40117
rhand -1.13385 -54.721
rfingers 7.12502
rthumb 24.5039 -83.1733
lclavicle -1.12375e-014 5.54112e-015
lhumerus -29.4022 3.63579 81.4674
lradius 22.8256
lwrist -2.94832
lhand -21.1915 -13.3309
lfingers 7.12502
lthumb 5.1894 16.5855
rfemur -22.4636 7.02748 19.1001
rtibia 4.76227
rfoot -18.6228 -9.53824
rtoes -32.2228
lfemur -24.1748 -8.5904 -20.4041
ltibia 9.23449
lfoot -10.0796 3.50805
ltoes -43.6972
